<svg width="24" height="24" viewBox="0 0 24 24" fill="none" xmlns="http://www.w3.org/2000/svg">
<rect width="24" height="24" rx="12" fill="white" fill-opacity="0.5"/>
<g opacity="0.4">
<path d="M17.0943 10.3256C17.0943 10.3709 16.739 14.8648 16.5361 16.756C16.409 17.9167 15.6608 18.6206 14.5385 18.6406C13.6761 18.66 12.832 18.6666 12.0014 18.6666C11.1196 18.6666 10.2573 18.66 9.42025 18.6406C8.33553 18.6146 7.58667 17.8967 7.46607 16.756C7.2573 14.8581 6.90848 10.3709 6.90199 10.3256C6.89551 10.1889 6.9396 10.0589 7.02907 9.9536C7.11725 9.85627 7.24433 9.79761 7.37789 9.79761H16.6249C16.7578 9.79761 16.8784 9.85627 16.9737 9.9536C17.0626 10.0589 17.1073 10.1889 17.0943 10.3256Z" fill="url(#paint0_linear_40_4166)" fill-opacity="0.8"/>
<path d="M17.0943 10.3256C17.0943 10.3709 16.739 14.8648 16.5361 16.756C16.409 17.9167 15.6608 18.6206 14.5385 18.6406C13.6761 18.66 12.832 18.6666 12.0014 18.6666C11.1196 18.6666 10.2573 18.66 9.42025 18.6406C8.33553 18.6146 7.58667 17.8967 7.46607 16.756C7.2573 14.8581 6.90848 10.3709 6.90199 10.3256C6.89551 10.1889 6.9396 10.0589 7.02907 9.9536C7.11725 9.85627 7.24433 9.79761 7.37789 9.79761H16.6249C16.7578 9.79761 16.8784 9.85627 16.9737 9.9536C17.0626 10.0589 17.1073 10.1889 17.0943 10.3256Z" fill="black" fill-opacity="0.5"/>
</g>
<path d="M18 7.98449C18 7.7105 17.7841 7.49584 17.5247 7.49584H15.5809C15.1854 7.49584 14.8418 7.21452 14.7536 6.81787L14.6447 6.33188C14.4923 5.74457 13.9665 5.33325 13.3765 5.33325H10.6242C10.0277 5.33325 9.50702 5.74457 9.34882 6.36388L9.24703 6.81853C9.1582 7.21452 8.81457 7.49584 8.41971 7.49584H6.4759C6.21591 7.49584 6 7.7105 6 7.98449V8.23782C6 8.50514 6.21591 8.72647 6.4759 8.72647H17.5247C17.7841 8.72647 18 8.50514 18 8.23782V7.98449Z" fill="url(#paint1_linear_40_4166)" fill-opacity="0.8"/>
<path d="M18 7.98449C18 7.7105 17.7841 7.49584 17.5247 7.49584H15.5809C15.1854 7.49584 14.8418 7.21452 14.7536 6.81787L14.6447 6.33188C14.4923 5.74457 13.9665 5.33325 13.3765 5.33325H10.6242C10.0277 5.33325 9.50702 5.74457 9.34882 6.36388L9.24703 6.81853C9.1582 7.21452 8.81457 7.49584 8.41971 7.49584H6.4759C6.21591 7.49584 6 7.7105 6 7.98449V8.23782C6 8.50514 6.21591 8.72647 6.4759 8.72647H17.5247C17.7841 8.72647 18 8.50514 18 8.23782V7.98449Z" fill="black" fill-opacity="0.5"/>
<defs>
<linearGradient id="paint0_linear_40_4166" x1="5.40647" y1="7.359" x2="18.2954" y2="15.936" gradientUnits="userSpaceOnUse">
<stop stop-color="#1CEAC5"/>
<stop offset="0.247318" stop-color="#28A5FF"/>
<stop offset="1" stop-color="#882FCD"/>
</linearGradient>
<linearGradient id="paint1_linear_40_4166" x1="4.24047" y1="4.40026" x2="8.45692" y2="13.0324" gradientUnits="userSpaceOnUse">
<stop stop-color="#1CEAC5"/>
<stop offset="0.247318" stop-color="#28A5FF"/>
<stop offset="1" stop-color="#882FCD"/>
</linearGradient>
</defs>
</svg>
