<svg width="24" height="24" viewBox="0 0 24 24" fill="none" xmlns="http://www.w3.org/2000/svg">
<path opacity="0.4" d="M21.9904 20.6917H14.8726C14.1781 20.6917 13.6133 21.2654 13.6133 21.9709C13.6133 22.6777 14.1781 23.2501 14.8726 23.2501H21.9904C22.6849 23.2501 23.2497 22.6777 23.2497 21.9709C23.2497 21.2654 22.6849 20.6917 21.9904 20.6917" fill="white"/>
<path d="M9.88628 5.62975L16.6311 11.0799C16.7938 11.2102 16.8216 11.4494 16.6946 11.616L8.69843 22.0352C8.19577 22.6788 7.45502 23.043 6.66136 23.0564L2.2962 23.1102C2.06339 23.1128 1.85968 22.9516 1.80677 22.7205L0.814693 18.4072C0.642733 17.6144 0.814693 16.7947 1.31735 16.1631L9.3532 5.69425C9.48283 5.52629 9.72225 5.49673 9.88628 5.62975" fill="white"/>
<path opacity="0.4" d="M19.6506 7.8318L18.3503 9.45501C18.2194 9.62028 17.9839 9.64716 17.8212 9.51547C16.2405 8.23626 12.1928 4.95356 11.0698 4.04386C10.9058 3.90949 10.8833 3.67031 11.0155 3.50369L12.2695 1.94632C13.4071 0.481671 15.3913 0.347299 16.9918 1.62383L18.8305 3.08848C19.5845 3.67972 20.0871 4.45907 20.2591 5.27874C20.4575 6.18037 20.2459 7.06588 19.6506 7.8318" fill="white"/>
</svg>
