<svg width="30" height="30" viewBox="0 0 30 30" fill="none" xmlns="http://www.w3.org/2000/svg">
<path opacity="0.4" d="M16.2204 3.89202L19.0035 9.48486C19.2085 9.89007 19.5999 10.1715 20.0512 10.234L26.3025 11.1445C26.6676 11.1957 26.9989 11.3883 27.2227 11.6822C27.444 11.9724 27.5391 12.3401 27.4853 12.7015C27.4415 13.0016 27.3003 13.2793 27.084 13.4919L22.5542 17.8829C22.2229 18.1893 22.0729 18.6433 22.1529 19.0872L23.2681 25.2604C23.3869 26.0058 22.8931 26.7086 22.1529 26.8499C21.8478 26.8987 21.5353 26.8474 21.2602 26.7074L15.684 23.8021C15.2702 23.5933 14.7813 23.5933 14.3675 23.8021L8.79128 26.7074C8.10614 27.0713 7.2572 26.8237 6.87587 26.1483C6.73459 25.8794 6.68458 25.573 6.73084 25.2741L7.84608 19.0998C7.9261 18.657 7.77481 18.2005 7.44474 17.8941L2.91502 13.5057C2.37616 12.9854 2.3599 12.1287 2.87876 11.5897C2.89002 11.5784 2.90252 11.5659 2.91502 11.5534C3.13007 11.3346 3.41263 11.1957 3.71769 11.1595L9.96903 10.2477C10.4191 10.184 10.8105 9.90508 11.0168 9.49737L13.6998 3.89202C13.9386 3.41177 14.4337 3.11287 14.9714 3.12538H15.1389C15.6052 3.18166 16.0116 3.47055 16.2204 3.89202Z" fill="white"/>
<path d="M14.99 23.6464C14.7479 23.6539 14.512 23.719 14.2998 23.8353L8.7509 26.7339C8.07195 27.0579 7.25945 26.8065 6.87879 26.1572C6.73776 25.892 6.68659 25.588 6.73402 25.2902L7.8423 19.1289C7.91719 18.6811 7.76742 18.2257 7.44167 17.9104L2.90992 13.5231C2.372 12.9964 2.36202 12.132 2.8887 11.5928C2.89619 11.5853 2.90243 11.579 2.90992 11.5727C3.12459 11.3601 3.40166 11.22 3.69995 11.1762L9.95654 10.2554C10.4096 10.1979 10.8027 9.91514 11.0024 9.5048L13.722 3.8289C13.9803 3.37102 14.4758 3.0983 15 3.12707C14.99 3.49863 14.99 23.3937 14.99 23.6464Z" fill="white"/>
</svg>
