<svg width="30" height="31" viewBox="0 0 30 31" fill="none" xmlns="http://www.w3.org/2000/svg">
<path d="M18.5715 17.714L26.7036 9.55575C27.2124 9.04421 27.5 8.34552 27.5 7.61633V5.2236C27.5 3.72225 26.3088 3 24.8395 3H5.1605C3.69119 3 2.5 3.72225 2.5 5.2236V7.65931C2.5 8.34968 2.75642 9.01509 3.21905 9.5197L10.6904 17.6711C10.8315 17.8249 11.0282 17.9123 11.2358 17.9137L18.0438 17.9331C18.2405 17.9345 18.4304 17.8568 18.5715 17.714Z" fill="white"/>
<path opacity="0.4" d="M10.9102 17.8413V27.0144C10.9102 27.3485 11.0784 27.6631 11.3538 27.8434C11.5112 27.9473 11.693 28 11.8748 28C12.0118 28 12.1488 27.9709 12.2764 27.9127L17.7846 25.3453C18.1292 25.1859 18.3503 24.8351 18.3503 24.4483V17.8413H10.9102Z" fill="white"/>
</svg>
