<svg width="30" height="30" viewBox="0 0 30 30" fill="none" xmlns="http://www.w3.org/2000/svg">
<path opacity="0.4" d="M27.5 14.9998C27.5 21.9048 21.9037 27.4998 15 27.4998C8.09625 27.4998 2.5 21.9048 2.5 14.9998C2.5 8.09726 8.09625 2.49976 15 2.49976C21.9037 2.49976 27.5 8.09726 27.5 14.9998Z" fill="white"/>
<path d="M11.5706 12.2325C11.5689 12.2729 11.5754 12.3132 11.5899 12.3509C11.6043 12.3886 11.6263 12.423 11.6545 12.4519C11.6827 12.4809 11.7166 12.5037 11.7539 12.5191C11.7913 12.5344 11.8314 12.542 11.8718 12.5412H12.9031C13.0756 12.5412 13.2131 12.4 13.2356 12.2287C13.3481 11.4088 13.9106 10.8113 14.9131 10.8113C15.7706 10.8113 16.5556 11.24 16.5556 12.2712C16.5556 13.065 16.0881 13.43 15.3493 13.985C14.5081 14.5963 13.8418 15.31 13.8893 16.4688L13.8931 16.74C13.8944 16.822 13.9279 16.9002 13.9864 16.9577C14.0448 17.0153 14.1236 17.0475 14.2056 17.0475H15.2193C15.3022 17.0475 15.3817 17.0146 15.4403 16.956C15.4989 16.8974 15.5318 16.8179 15.5318 16.735V16.6038C15.5318 15.7063 15.8731 15.445 16.7943 14.7463C17.5556 14.1675 18.3493 13.525 18.3493 12.1763C18.3493 10.2875 16.7543 9.375 15.0081 9.375C13.4243 9.375 11.6893 10.1125 11.5706 12.2325ZM13.5168 19.4362C13.5168 20.1025 14.0481 20.595 14.7793 20.595C15.5406 20.595 16.0643 20.1025 16.0643 19.4362C16.0643 18.7463 15.5393 18.2613 14.7781 18.2613C14.0481 18.2613 13.5168 18.7463 13.5168 19.4362Z" fill="white"/>
</svg>
