<svg width="178" height="45" viewBox="0 0 178 45" fill="none" xmlns="http://www.w3.org/2000/svg">
<path d="M32.587 10.1174C32.5493 10.1174 32.5493 10.1174 32.5115 10.1174C32.8511 9.36242 33.0397 8.53187 33.0397 7.70133C33.0397 3.43539 28.5124 0 22.891 0C17.2695 0 12.7422 3.43539 12.7422 7.70133C12.7422 11.854 17.0431 15.2139 22.4382 15.4027C33.0774 15.8935 44.094 18.4606 44.9617 30.5034C47.1876 22.6888 45.1881 11.854 32.587 10.1174Z" fill="white"/>
<path d="M22.8917 26.5395C9.38518 25.9732 1.65099 18.8759 2.40554 10.4573C-3.02726 21.9715 4.10329 30.1637 11.9129 31.7115C11.1207 32.9195 10.6679 34.3163 10.6679 35.7509C10.6679 40.8474 16.1384 45.0001 22.854 45.0001C29.5695 45.0001 35.04 40.8474 35.04 35.7509C35.0778 30.6922 29.645 26.5395 22.8917 26.5395Z" fill="white"/>
<path d="M68.8458 26.6903C68.8458 26.2751 68.6194 25.9353 68.2044 25.5955C67.7894 25.2558 67.2612 24.9538 66.6198 24.6895C66.0162 24.3875 65.3748 24.0855 64.7712 23.708C64.1675 23.3304 63.6393 22.8397 63.1866 22.1601C62.7716 21.4806 62.5452 20.7256 62.5452 19.7818C62.5452 18.5737 62.998 17.5544 63.9034 16.6861C64.8089 15.8178 65.9785 15.4026 67.4499 15.4026C69.374 15.4026 70.8831 15.9688 71.9017 17.0636L70.0531 19.6685C69.6758 19.291 69.2985 19.0645 68.9967 18.8757C68.6949 18.7247 68.2799 18.6492 67.7517 18.6492C67.2612 18.6492 66.9217 18.7625 66.6198 18.9512C66.3557 19.14 66.2048 19.442 66.2048 19.7818C66.2048 20.1593 66.3557 20.5368 66.6576 20.8388C66.9594 21.1408 67.3744 21.4051 67.8271 21.5939C68.2799 21.7826 68.8081 22.0469 69.3362 22.3111C69.9022 22.6132 70.3926 22.9152 70.8454 23.2172C71.2981 23.557 71.7131 24.01 72.0149 24.5762C72.3167 25.1425 72.4676 25.8598 72.4676 26.6148C72.4676 27.8984 71.9772 28.9932 70.9963 29.8237C70.0153 30.6543 68.7703 31.0695 67.2989 31.0695C66.2048 31.0695 65.1862 30.843 64.1675 30.39C63.1489 29.937 62.5075 29.3329 62.168 28.5779L64.1298 26.1996C64.5448 26.7281 65.0353 27.1056 65.6389 27.4076C66.2426 27.6719 66.8085 27.8229 67.3744 27.8229C67.8271 27.8229 68.1667 27.7096 68.4308 27.5209C68.6949 27.3321 68.8458 27.0678 68.8458 26.6903Z" fill="white"/>
<path d="M73.9766 30.843V15.7046H82.9558V18.9512H77.4475V21.6316H82.3144V24.8782H77.4475V27.6341H83.1821V30.8808H73.9766V30.843Z" fill="white"/>
<path d="M85.1445 30.843V15.7046H88.6155L93.2937 22.0846L97.7079 15.7046H100.99V30.8808H97.5192V21.2163L93.2937 27.1433H92.8033L88.6155 21.2918V30.8808H85.1445V30.843Z" fill="white"/>
<path d="M103.441 30.843V15.7046H112.421V18.9512H106.912V21.6316H111.779V24.8782H106.912V27.6341H112.647V30.8808H103.441V30.843Z" fill="white"/>
<path d="M127.851 30.843H125.096L117.928 21.7449V30.843H114.684V15.7046H117.438L124.606 24.8405V15.7046H127.851V30.843Z" fill="white"/>
<path d="M129.699 28.7666C129.699 28.2381 129.888 27.7851 130.303 27.3698C130.718 26.9545 131.246 26.728 131.887 26.728C132.453 26.728 132.944 26.9545 133.321 27.3698C133.698 27.7851 133.887 28.2758 133.887 28.7666C133.887 29.3706 133.698 29.8614 133.321 30.3144C132.944 30.7675 132.453 30.9562 131.85 30.9562C131.171 30.9562 130.642 30.7297 130.265 30.3144C129.888 29.8992 129.699 29.3706 129.699 28.7666Z" fill="white"/>
<path d="M134.152 23.255C134.152 21.0277 134.907 19.1401 136.378 17.6678C137.85 16.1955 139.812 15.4404 142.188 15.4404C144.527 15.4404 146.452 16.1577 147.961 17.5923C149.47 19.0268 150.224 20.9144 150.224 23.2928C150.224 25.5579 149.47 27.4455 147.923 28.9178C146.414 30.3901 144.49 31.1451 142.151 31.1451C139.812 31.1451 137.887 30.4279 136.378 28.9933C134.907 27.521 134.152 25.6334 134.152 23.255ZM137.812 23.255C137.812 24.5386 138.227 25.6334 139.095 26.5394C139.962 27.4077 140.981 27.8607 142.188 27.8607C143.584 27.8607 144.641 27.4455 145.395 26.5772C146.15 25.7089 146.527 24.6141 146.527 23.2928C146.527 21.9337 146.112 20.8389 145.282 19.9706C144.452 19.1023 143.396 18.6871 142.151 18.6871C140.868 18.6871 139.849 19.1023 139.019 19.9706C138.189 20.8389 137.812 21.896 137.812 23.255Z" fill="white"/>
<path d="M155.24 30.8431H151.77V15.7047C152.071 15.7047 152.977 15.7047 154.486 15.6669C155.995 15.6669 156.787 15.6292 156.9 15.6292C158.862 15.6292 160.296 16.0444 161.164 16.9127C162.069 17.781 162.484 18.9513 162.484 20.4614C162.484 22.5377 161.616 23.9723 159.919 24.8406L164.333 30.8053H160.145L156.448 25.4824H155.165V30.8431H155.24ZM156.75 18.9136C156.674 18.9136 156.184 18.9135 155.24 18.9513V22.3112H156.486C158.07 22.3112 158.862 21.7449 158.862 20.5746C158.825 19.4421 158.146 18.9136 156.75 18.9136Z" fill="white"/>
<path d="M171.015 25.4446V22.198H177.504V28.9555C176.862 29.5973 175.995 30.1258 174.9 30.5034C173.806 30.8809 172.788 31.0696 171.807 31.0696C169.241 31.0696 167.279 30.3523 165.846 28.9555C164.412 27.5587 163.695 25.6334 163.695 23.255C163.695 21.0277 164.412 19.1401 165.808 17.6678C167.204 16.1577 169.053 15.4404 171.392 15.4404C173.354 15.4404 175.014 15.969 176.334 17.026L174.9 19.8196C174.599 19.5176 174.146 19.2534 173.58 19.0268C173.014 18.8003 172.41 18.6871 171.807 18.6871C170.486 18.6871 169.43 19.0646 168.6 19.8574C167.77 20.6502 167.393 21.7827 167.393 23.2928C167.393 24.6896 167.808 25.8222 168.6 26.6527C169.43 27.4832 170.486 27.8985 171.845 27.8985C172.26 27.8985 172.75 27.823 173.203 27.6342C173.693 27.4832 174.033 27.2945 174.221 27.1435V25.4824H171.015V25.4446Z" fill="white"/>
</svg>
