<svg width="73" height="34" viewBox="0 0 73 34" fill="none" xmlns="http://www.w3.org/2000/svg">
<rect x="0.282715" y="0.667969" width="72.4342" height="32.6641" rx="16.3321" fill="white" fill-opacity="0.4"/>
<path d="M16.4068 10.6679C16.6933 10.6679 16.9813 10.7774 17.2003 10.9964L22.4308 16.2014C22.6423 16.4129 22.7608 16.6994 22.7608 16.9994C22.7608 17.2979 22.6423 17.5844 22.4308 17.7959L17.2003 23.0039C16.7608 23.4419 16.0498 23.4419 15.6103 23.0009C15.1723 22.5599 15.1738 21.8474 15.6133 21.4094L20.0428 16.9994L15.6133 12.5894C15.1738 12.1514 15.1723 11.4404 15.6103 10.9994C15.8293 10.7774 16.1188 10.6679 16.4068 10.6679Z" fill="white" fill-opacity="0.2"/>
<path d="M33.8848 10.6679C34.1713 10.6679 34.4593 10.7774 34.6783 10.9964L39.9088 16.2014C40.1203 16.4129 40.2388 16.6994 40.2388 16.9994C40.2388 17.2979 40.1203 17.5844 39.9088 17.7959L34.6783 23.0039C34.2388 23.4419 33.5278 23.4419 33.0883 23.0009C32.6503 22.5599 32.6518 21.8474 33.0913 21.4094L37.5208 16.9994L33.0913 12.5894C32.6518 12.1514 32.6503 11.4404 33.0883 10.9994C33.3073 10.7774 33.5968 10.6679 33.8848 10.6679Z" fill="white" fill-opacity="0.6"/>
<path d="M51.3628 10.6679C51.6493 10.6679 51.9373 10.7774 52.1563 10.9964L57.3868 16.2014C57.5983 16.4129 57.7168 16.6994 57.7168 16.9994C57.7168 17.2979 57.5983 17.5844 57.3868 17.7959L52.1563 23.0039C51.7168 23.4419 51.0058 23.4419 50.5663 23.0009C50.1283 22.5599 50.1298 21.8474 50.5693 21.4094L54.9988 16.9994L50.5693 12.5894C50.1298 12.1514 50.1283 11.4404 50.5663 10.9994C50.7853 10.7774 51.0748 10.6679 51.3628 10.6679Z" fill="white"/>
</svg>
